
<svg xmlns="http://www.w3.org/2000/svg" version="1.1" xmlns:xlink="http://www.w3.org/1999/xlink" preserveAspectRatio="none" x="0px" y="0px" width="16px" height="16px" viewBox="0 0 16 16">
<defs>
<g id="Layer0_0_MEMBER_0_FILL">
<path fill="#000000" stroke="none" d="
M 14 8
Q 14 5.55 12.25 3.75 10.5 2 8 2 5.5 2 3.75 3.75 2 5.5 2 8 2 10.5 3.75 12.25 5.5 14 8 14 10.5 14 12.25 12.25 14 10.5 14 8
M 13 8
Q 13 10.1 11.55 11.55 10.05 13 8 13 5.9 13 4.45 11.55 3 10.1 3 8 3 5.95 4.45 4.45 5.9 3 8 3 10.05 3 11.55 4.45 13 5.95 13 8 Z"/>
</g>

<g id="Layer0_0_MEMBER_1_FILL">
<path fill="#000000" stroke="none" d="
M 8.5 7.35
Q 8.5 6.85 8 6.85 7.5 6.85 7.5 7.35
L 7.5 10.75
Q 7.5 11.25 8 11.25 8.5 11.25 8.5 10.75
L 8.5 7.35
M 8 4.85
Q 7.45 4.85 7.45 5.35
L 7.45 5.45
Q 7.45 5.9 7.95 5.9
L 8 5.9
Q 8.4 5.9 8.5 5.4
L 8.5 5.25
Q 8.5 4.8 8.05 4.8
L 8 4.85 Z"/>
</g>
</defs>

<g transform="matrix( 1.3333282470703125, 0, 0, 1.3333282470703125, -2.65,-2.65) ">
<use xlink:href="#Layer0_0_MEMBER_0_FILL"/>
</g>

<g transform="matrix( 1.3333282470703125, 0, 0, 1.3333282470703125, -2.65,-2.65) ">
<use xlink:href="#Layer0_0_MEMBER_1_FILL"/>
</g>
</svg>
